<svg width="67" height="67" viewBox="0 0 67 67" fill="none" xmlns="http://www.w3.org/2000/svg">
<g clip-path="url(#clip0_43_207)">
<path d="M33.5003 0C15.001 0 0 15.3778 0 34.3481C0 49.524 9.59885 62.3992 22.9095 66.941C24.5838 67.2589 25.1984 66.1959 25.1984 65.2886C25.1984 64.4696 25.1674 61.7638 25.1529 58.8937C15.8331 60.9715 13.8665 54.8411 13.8665 54.8411C12.3426 50.8709 10.1469 49.8153 10.1469 49.8153C7.10746 47.6834 10.3761 47.7272 10.3761 47.7272C13.7401 47.9695 15.5114 51.2668 15.5114 51.2668C18.4993 56.5179 23.3483 54.9998 25.26 54.1221C25.5607 51.9021 26.4289 50.3869 27.3869 49.5292C19.9461 48.6606 12.1241 45.7154 12.1241 32.5542C12.1241 28.8041 13.4327 25.7401 15.5757 23.3346C15.2279 22.4695 14.0812 18.976 15.9003 14.2448C15.9003 14.2448 18.7134 13.3216 25.1152 17.7656C27.7875 17.0046 30.6533 16.6229 33.5003 16.6098C36.3473 16.6229 39.2153 17.0046 41.8925 17.7656C48.2866 13.3216 51.0959 14.2448 51.0959 14.2448C52.9193 18.976 51.7721 22.4695 51.4243 23.3346C53.5723 25.7401 54.872 28.8041 54.872 32.5542C54.872 45.7467 47.0351 48.6515 39.5754 49.5019C40.7769 50.5678 41.8476 52.6581 41.8476 55.8626C41.8476 60.4585 41.8088 64.1573 41.8088 65.2886C41.8088 66.2027 42.4118 67.2737 44.1099 66.9364C57.4134 62.3895 67 49.5189 67 34.3481C67 15.3778 52.0012 0 33.5003 0Z" fill="#14AE5C"/>
<path d="M12.787 49.0807C12.7134 49.2497 12.452 49.3004 12.2139 49.1844C11.9714 49.0734 11.8352 48.8431 11.9138 48.6735C11.9858 48.4995 12.2477 48.4511 12.4897 48.5677C12.7328 48.6786 12.8712 48.9112 12.787 49.0807Z" fill="#14AE5C"/>
<path d="M14.1414 50.6171C13.982 50.7674 13.6702 50.6976 13.4587 50.4599C13.24 50.2228 13.199 49.9058 13.3607 49.7532C13.5251 49.6028 13.8275 49.6732 14.0467 49.9103C14.2655 50.1502 14.3081 50.465 14.1414 50.6171Z" fill="#14AE5C"/>
<path d="M15.4598 52.5758C15.2549 52.7206 14.9199 52.5848 14.7128 52.2824C14.508 51.98 14.508 51.6173 14.7173 51.472C14.9249 51.3267 15.2549 51.4574 15.4648 51.7575C15.6691 52.065 15.6691 52.4277 15.4598 52.5758Z" fill="#14AE5C"/>
<path d="M17.266 54.4681C17.0828 54.6737 16.6924 54.6185 16.4067 54.338C16.1143 54.0638 16.0329 53.6746 16.2167 53.469C16.4022 53.2629 16.7948 53.3209 17.0828 53.5991C17.3729 53.8728 17.4615 54.2648 17.266 54.4681Z" fill="#14AE5C"/>
<path d="M19.7578 55.5669C19.6769 55.8333 19.301 55.9543 18.9222 55.8411C18.544 55.7246 18.2965 55.4126 18.3729 55.1434C18.4515 54.8753 18.8292 54.7491 19.2107 54.8702C19.5883 54.9862 19.8364 55.296 19.7578 55.5669Z" fill="#14AE5C"/>
<path d="M22.4942 55.7708C22.5037 56.0512 22.1825 56.2838 21.7849 56.2889C21.3851 56.2979 21.0618 56.0709 21.0573 55.795C21.0573 55.5117 21.3713 55.2814 21.7711 55.2746C22.1687 55.2667 22.4942 55.492 22.4942 55.7708Z" fill="#14AE5C"/>
<path d="M25.0408 55.3298C25.0885 55.6035 24.8121 55.8845 24.4173 55.9594C24.0292 56.0315 23.6698 55.8625 23.6205 55.5911C23.5724 55.3106 23.8537 55.0296 24.2413 54.957C24.6366 54.8871 24.9904 55.0516 25.0408 55.3298Z" fill="#14AE5C"/>
</g>
<defs>
<clipPath id="clip0_43_207">
<rect width="67" height="67" fill="white"/>
</clipPath>
</defs>
</svg>
